<svg xmlns="http://www.w3.org/2000/svg" viewBox="0 0 50 36.63"><defs><style>.cls-1{fill:#1d1d1b;}</style></defs><title>Asset 14</title><g id="Layer_2" data-name="Layer 2"><g id="Layer_1-2" data-name="Layer 1"><path class="cls-1" d="M16,3.84V18.43c-.55.44-1.05.91-1.49,1.31a15.61,15.61,0,0,0-1.45,1.61l-.22.26a3.82,3.82,0,0,1-1,.9,1,1,0,0,1-1.09-.18c-.29-.25-.56-.53-.84-.82L9.41,21a4.73,4.73,0,0,0-1.35-.92A3.35,3.35,0,0,0,5.66,20a7.87,7.87,0,0,0-2,1c-.31.19-.64.37-1,.54l-.55.3a5.87,5.87,0,0,0-1.5,1.1,5.94,5.94,0,0,0-.66,1V0Z"/><path class="cls-1" d="M16,19.35v2.22a4.74,4.74,0,0,0-.64.49A14.79,14.79,0,0,0,13.57,24a5,5,0,0,0-.54.84l-.1.18a5.94,5.94,0,0,1-1.12,1.54,1.63,1.63,0,0,1-1.28.46,1.35,1.35,0,0,1-1.15-.83,7.76,7.76,0,0,1-.3-.72c-.07-.19-.14-.38-.23-.57a2.58,2.58,0,0,0-1-1.28A1.92,1.92,0,0,0,6,23.52,11.34,11.34,0,0,0,3.44,25a3.4,3.4,0,0,0-.68.8l-.17.24-.18.24A4.62,4.62,0,0,1,1.9,27a2.8,2.8,0,0,1-.9.54A5.11,5.11,0,0,0,0,28v-3a3.36,3.36,0,0,0,.45-.6l.11-.19a5.92,5.92,0,0,1,.63-.94,4.87,4.87,0,0,1,1.32-1l.54-.3c.33-.18.67-.36,1-.56a7,7,0,0,1,1.82-.91,2.59,2.59,0,0,1,1.9.11,3.86,3.86,0,0,1,1.15.77l.47.48a12.45,12.45,0,0,0,.89.89,1.69,1.69,0,0,0,1.91.24,4.52,4.52,0,0,0,1.21-1.06l.22-.26A13.73,13.73,0,0,1,15,20.26C15.29,20,15.63,19.66,16,19.35Z"/><path class="cls-1" d="M16,22.44V33.9l-.87.35-.47.19a5.81,5.81,0,0,0-1.73,1,2.41,2.41,0,0,1-.5.33l-.83-.21L0,32.65H0V29l.09-.1a3.84,3.84,0,0,1,1.19-.71,3.31,3.31,0,0,0,1.12-.69A5,5,0,0,0,3,26.73l.17-.23.18-.26a2.87,2.87,0,0,1,.53-.64A10.5,10.5,0,0,1,6.3,24.18,1.57,1.57,0,0,1,6.9,24a1.06,1.06,0,0,1,.55.15,1.88,1.88,0,0,1,.76.95l.21.54c.1.27.2.53.32.78a2.06,2.06,0,0,0,1.72,1.22,2.31,2.31,0,0,0,1.83-.63,6.57,6.57,0,0,0,1.25-1.72l.11-.19a6.49,6.49,0,0,1,.46-.73,15.4,15.4,0,0,1,1.75-1.85Z"/><path class="cls-1" d="M15.39,34.91l.61-.24v2l-.14,0-.14,0L13.36,36l0,0a5.35,5.35,0,0,1,1.54-.86Z"/><path class="cls-1" d="M33,0V7.79a2.48,2.48,0,0,0-1-.6,5.57,5.57,0,0,1-1.6-.81A.88.88,0,0,1,30,5.91q-.11-.47-.18-.93c0-.19-.07-.37-.11-.56s-.13-.63-.18-.94a3.49,3.49,0,0,1-.08-.82,1.84,1.84,0,0,1,.26-.77c.24-.43.48-.86.73-1.28Z"/><path class="cls-1" d="M33,9V12c-.31-.09-.61-.15-.92-.22l-.14,0a7.64,7.64,0,0,1-2.53-1A17.94,17.94,0,0,0,24.73,8.6a2.1,2.1,0,0,1-1.37-.88,7.47,7.47,0,0,1-.54-1.25,4.2,4.2,0,0,1-.32-1.34,4.5,4.5,0,0,1,.19-1.41,7.23,7.23,0,0,1,.66-1.4L29.5.84l-.4.71a2.42,2.42,0,0,0-.34,1.08,4.19,4.19,0,0,0,.08,1l.18,1c0,.18.08.37.11.55s.12.64.19,1A1.59,1.59,0,0,0,30,7a6.46,6.46,0,0,0,1.8.91A2.14,2.14,0,0,1,33,9Z"/><path class="cls-1" d="M17.71,33.14c-.23.12-.47.23-.71.33v-7l.06.13.33.63.2.36a18.41,18.41,0,0,0,1,1.73L19,30A11.12,11.12,0,0,1,19.79,31a1.4,1.4,0,0,1,.27.87c0,.27-.1.35-.16.4a1.35,1.35,0,0,1-.44.2l-.3.09A8.23,8.23,0,0,0,17.71,33.14Z"/><path class="cls-1" d="M17,25.14V21.87c.23-.1.45-.2.69-.28l.16-.06a4.39,4.39,0,0,1,1-.26.89.89,0,0,0,.36-.06,1.93,1.93,0,0,1,.53.07,2.34,2.34,0,0,1,1.52,1,.49.49,0,0,1-.05.67,3.83,3.83,0,0,1-1.88.92,5.43,5.43,0,0,0-1.93.8A1.13,1.13,0,0,0,17,25.14Z"/><path class="cls-1" d="M28.87,23.26a7.16,7.16,0,0,1-.3,1.46c0,.11-.06.13-.17.13h0a.67.67,0,0,1-.17-.08,6.75,6.75,0,0,0-.69-.39,3.2,3.2,0,0,0-2.08-.31,3.9,3.9,0,0,0-1.56.75A2.3,2.3,0,0,0,23,26.69a3.74,3.74,0,0,0,.33,1.47,11.93,11.93,0,0,0,1.18,2l.05.07a5.56,5.56,0,0,1,.81,1.46,12.58,12.58,0,0,1,.6,2.66v0L21.4,35.53l-4.12,1-.14,0-.14,0V34.25c.35-.15.69-.31,1-.48a7.27,7.27,0,0,1,1.33-.49l.31-.09a2.29,2.29,0,0,0,.63-.3,1.24,1.24,0,0,0,.47-.91,2.15,2.15,0,0,0-.37-1.31,13.52,13.52,0,0,0-.79-1.14l-.42-.59a18,18,0,0,1-1-1.66l-.2-.37-.32-.61a1,1,0,0,1-.13-.44c0-.32.08-.5.24-.6a4.43,4.43,0,0,1,1.67-.69,4.51,4.51,0,0,0,2.23-1.09,1.2,1.2,0,0,0,.16-1.59,3.11,3.11,0,0,0-1.95-1.31,3.78,3.78,0,0,0-.72-.08.4.4,0,0,0-.32.06h-.16a5.28,5.28,0,0,0-1.09.29l-.16.06-.46.17V18.55a5,5,0,0,1,1.13-.64,18.4,18.4,0,0,1,2.57-.8l.12,0a6,6,0,0,1,2.08-.22,5.07,5.07,0,0,1,1.15.3,8.64,8.64,0,0,1,2.45,1.65l.55.5c.31.29.63.59,1,.86a2.63,2.63,0,0,1,.89,1.91A5.82,5.82,0,0,1,28.87,23.26Z"/><path class="cls-1" d="M33,12.77V32.65h0l-6.3,1.57a13,13,0,0,0-.63-2.73,6,6,0,0,0-.9-1.65l0-.08A10.92,10.92,0,0,1,24,27.87a3,3,0,0,1-.27-1.18,1.6,1.6,0,0,1,.6-1.32,3,3,0,0,1,1.26-.6,2.51,2.51,0,0,1,1.63.25,5.32,5.32,0,0,1,.61.35,1.78,1.78,0,0,0,.47.2.42.42,0,0,0,.25,0,.85.85,0,0,0,.7-.6,8.88,8.88,0,0,0,.34-1.6,6.57,6.57,0,0,0,0-1.33,3.3,3.3,0,0,0-1.13-2.39c-.32-.27-.63-.55-.94-.84L27,18.28a9.45,9.45,0,0,0-2.66-1.78A5.45,5.45,0,0,0,23,16.16a6.43,6.43,0,0,0-2.33.23l-.12,0a20,20,0,0,0-2.68.83,5.15,5.15,0,0,0-.87.45V3.84l5.42-1.3a8.37,8.37,0,0,0-.4,1,5.21,5.21,0,0,0-.23,1.63,5.22,5.22,0,0,0,.37,1.6,8,8,0,0,0,.59,1.35,2.92,2.92,0,0,0,1.78,1.2A17.24,17.24,0,0,1,29,11.41a8.51,8.51,0,0,0,2.76,1.07l.14,0C32.3,12.59,32.65,12.67,33,12.77Z"/><path class="cls-1" d="M50,3.84v3l-1,.33-.19.07-.46.15-.56.19a4,4,0,0,0-1.75,1,7.45,7.45,0,0,0-.68.85,1.28,1.28,0,0,1-1.25.63,7.86,7.86,0,0,0-1.46,0,2.4,2.4,0,0,0-.93.28,4.79,4.79,0,0,1-1.73.66,2.07,2.07,0,0,1-.66,0A3.71,3.71,0,0,1,38,10.33l-.35-.26a7.44,7.44,0,0,0-.73-.52A2,2,0,0,0,36,9.23h-.15A2.51,2.51,0,0,0,35,9.4l-.24.09-.61.23h-.06l0,0L34,9.55V0Z"/><path class="cls-1" d="M50,7.54V11l-.16.08c-.77.39-1.52.8-2.27,1.22-1.19.67-2.42,1.44-4,2.47-.3.2-.59.41-.88.62a9,9,0,0,1-1.57,1,2.37,2.37,0,0,1-2.59-.14,13.62,13.62,0,0,1-1.88-1.72,13.67,13.67,0,0,0-1.85-1.7,4,4,0,0,0-.81-.45V10.44a1,1,0,0,0,.36,0c.22-.07.43-.15.65-.24l.23-.09a1.74,1.74,0,0,1,.68-.13,1.4,1.4,0,0,1,.58.22,6.29,6.29,0,0,1,.67.48l.36.28a4.35,4.35,0,0,0,1.59.76,2.67,2.67,0,0,0,.56.06l.35,0A5.6,5.6,0,0,0,42,11a1.81,1.81,0,0,1,.67-.2,7.37,7.37,0,0,1,1.33,0,2,2,0,0,0,1.89-.93,6.24,6.24,0,0,1,.6-.78A3.32,3.32,0,0,1,48,8.22l.58-.2.64-.21Z"/><path class="cls-1" d="M47.92,12.9c.69-.39,1.38-.76,2.08-1.12V36.63l-.14,0-.14,0-4.12-1L34,32.65h0V13.17a2.3,2.3,0,0,1,.4.23A12.15,12.15,0,0,1,36.14,15a15.15,15.15,0,0,0,2,1.81,3,3,0,0,0,1.75.59A3.59,3.59,0,0,0,41.43,17a9.41,9.41,0,0,0,1.69-1.09l.84-.6C45.52,14.32,46.74,13.56,47.92,12.9Z"/></g></g></svg>