<svg xmlns="http://www.w3.org/2000/svg" viewBox="0 0 38.37 32.49"><defs><style>.cls-1{fill:#1d1d1b;}</style></defs><title>mapa5</title><g id="Layer_2" data-name="Layer 2"><g id="Layer_1-2" data-name="Layer 1"><path class="cls-1" d="M11.67,3.41V5.46c-.21-.16-.42-.3-.61-.43l-.93-.59a25.91,25.91,0,0,1-2.85-2A2.63,2.63,0,0,1,6.88,2Z"/><path class="cls-1" d="M11.67,7.41V18h0a.52.52,0,0,0-.17,0l-.82.16-.65.12-.47.11a9.6,9.6,0,0,1-1.07.2q-.5.08-1,.18c-.2,0-.4.09-.6.12L6.2,19c-.31,0-.63.09-.94.15a10.8,10.8,0,0,0-2,.54A14.44,14.44,0,0,0,1,20.84L0,21.41l0,0V0L5.08,1.49a3.86,3.86,0,0,0,1.28,2,25,25,0,0,0,3,2.13l.91.58A5.73,5.73,0,0,1,11.67,7.41Z"/><path class="cls-1" d="M10.91,19.54l.76-.14v2.32a10.72,10.72,0,0,0-2.29.34l-.16,0a27,27,0,0,0-3.63,1.09A8.88,8.88,0,0,0,3.4,24.44c-.89.67-1.71,1.39-2.4,2a11.8,11.8,0,0,0-1,1V23.1l.78-.48.91-.57a14.46,14.46,0,0,1,2-1.06,11.32,11.32,0,0,1,1.81-.47c.29-.06.58-.1.87-.14l.71-.1.64-.13c.3-.06.59-.12.89-.16a12.1,12.1,0,0,0,1.2-.23l.45-.1Z"/><path class="cls-1" d="M9.68,23.44a10.94,10.94,0,0,1,2-.31v9.36l-.11,0-.1,0-3-.91-8-2.43a16.12,16.12,0,0,1,1.5-1.58c.67-.6,1.47-1.3,2.32-1.94a6.87,6.87,0,0,1,1.83-1.06,24.55,24.55,0,0,1,3.43-1Z"/><path class="cls-1" d="M20.27,29.7a4,4,0,0,1,0,.69l-3.72,1.13-3,.91-.1,0-.1,0V23.35a4.27,4.27,0,0,1,.54.18,11.41,11.41,0,0,1,3.23,2.1l.75.65c.42.39.85.77,1.3,1.13A3.07,3.07,0,0,1,20.27,29.7Z"/><path class="cls-1" d="M24.67,29.06l-3,.9c0-.13,0-.26,0-.39a4.44,4.44,0,0,0-1.63-3.27c-.42-.34-.83-.71-1.24-1.07L18,24.55a12.76,12.76,0,0,0-3.63-2.34,6.56,6.56,0,0,0-1.06-.31V19.48a5.26,5.26,0,0,1,.82.22c.58.19,1.14.43,1.73.69l.35.15a10.48,10.48,0,0,1,2.82,1.69c.3.25.59.52.87.78s.69.63,1,.93a20.4,20.4,0,0,1,2.38,2.33,5.79,5.79,0,0,1,.83,1.33A8,8,0,0,1,24.67,29.06Z"/><path class="cls-1" d="M25,0V5.84a5.18,5.18,0,0,0-2.09-.77,3,3,0,0,0-.52,0,6.9,6.9,0,0,0-1.3.15l-.34.05c-.54.09-.76,0-1-.24s-.45-.48-.66-.73a10.26,10.26,0,0,0-1.51-1.51c-.17-.14-.37-.28-.58-.42Z"/><path class="cls-1" d="M24.51,7.2l.51.4v5.87a4.84,4.84,0,0,0-2.55-.22c-.41.07-.82.17-1.23.26a14.21,14.21,0,0,1-1.5.3,6,6,0,0,1-2-.14,7.15,7.15,0,0,1-2.39-1A2.82,2.82,0,0,1,14,10.94a7.11,7.11,0,0,1-.16-1.26c0-.22,0-.45-.06-.68a4.83,4.83,0,0,0-.44-1.56v-4l1.77-.52a6.18,6.18,0,0,1,1.65,1,9.62,9.62,0,0,1,1.31,1.32c.23.27.46.53.71.79a2.31,2.31,0,0,0,2.2.65l.36-.06a4.76,4.76,0,0,1,1.38-.1A3.9,3.9,0,0,1,24.51,7.2Z"/><path class="cls-1" d="M25,15V26.15a7.27,7.27,0,0,0-.58-.79,20.84,20.84,0,0,0-2.54-2.5c-.34-.29-.67-.59-1-.89s-.59-.55-.9-.82a12.43,12.43,0,0,0-3.19-1.92l-.35-.15c-.59-.25-1.2-.51-1.84-.73A6.9,6.9,0,0,0,13.35,18V12.71a4.7,4.7,0,0,0,1.25,1.12,8.54,8.54,0,0,0,2.84,1.23,7.45,7.45,0,0,0,2.48.16,16.4,16.4,0,0,0,1.64-.33c.38-.08.76-.17,1.15-.24A3.3,3.3,0,0,1,25,15Z"/><path class="cls-1" d="M38.37,3.41V7L38,7a4.61,4.61,0,0,0-2.22.68c-.69.45-1.47,1-2.27,1.4a4,4,0,0,1-3.34.4A8,8,0,0,1,27.75,8c-.33-.26-.64-.54-1-.81l-.09-.08V0Z"/><path class="cls-1" d="M38.37,8.4v8.26c-.59,0-1.2-.06-1.8-.06H34.66c-.66,0-1.32,0-2,.06s-1.28,0-2,0l-.91,0a4.68,4.68,0,0,1-2.12-1.26l-.27-.25c-.23-.21-.46-.43-.71-.63V9l.17.14a8.94,8.94,0,0,0,2.88,1.69,5.34,5.34,0,0,0,1.66.27,5.72,5.72,0,0,0,2.82-.78c.83-.47,1.63-1,2.34-1.45a3.1,3.1,0,0,1,1.56-.46Z"/><path class="cls-1" d="M36.57,18c.6,0,1.21,0,1.8.07V32.49l-.1,0-.11,0-3-.91L26.72,29h0V16.4l0,0A5.92,5.92,0,0,0,29.5,18a5.35,5.35,0,0,0,1.18,0c.69,0,1.39,0,2.1,0,.94-.07,1.9-.06,2.84,0Z"/></g></g></svg>