<svg xmlns="http://www.w3.org/2000/svg" viewBox="0 0 38.37 26"><defs><style>.cls-1{fill:#1d1d1b;}</style></defs><title>mapa2</title><g id="Layer_2" data-name="Layer 2"><g id="Layer_1-2" data-name="Layer 1"><path class="cls-1" d="M11.67,2.72v7.65l-.07.06c-1.22,1.16-2.21,2.17-3.09,3.18a7.38,7.38,0,0,0-.83,1.17c-.14.22-.28.45-.43.66a5.2,5.2,0,0,1-1.11,1.22,1.26,1.26,0,0,1-1.79-.19,5.77,5.77,0,0,1-.67-1,7.9,7.9,0,0,0-1.43-2.1A4.12,4.12,0,0,0,0,12.18V0Z"/><path class="cls-1" d="M11.67,12.33V16l-.21.08-.16.05q-.45.16-.87.36l-.28.12a4.24,4.24,0,0,0-1.06.73,14.74,14.74,0,0,0-1.83,1.94,5,5,0,0,0-.58.89l-.1.18a5.82,5.82,0,0,1-1,1.46,1.25,1.25,0,0,1-1,.36,1,1,0,0,1-.87-.63c-.11-.22-.19-.45-.28-.68s-.15-.4-.24-.6A2.93,2.93,0,0,0,2,18.79,2.25,2.25,0,0,0,0,18.65v-5a2.76,2.76,0,0,1,1.26.73,6.55,6.55,0,0,1,1.16,1.73,6.43,6.43,0,0,0,.87,1.31A2.66,2.66,0,0,0,7,17.82,6.53,6.53,0,0,0,8.4,16.27c.17-.24.33-.49.48-.74a7.52,7.52,0,0,1,.69-1C10.2,13.83,10.88,13.11,11.67,12.33Z"/><path class="cls-1" d="M11,17.75c.22-.09.44-.19.67-.27V19.6a4.29,4.29,0,0,0-.5.29,1.71,1.71,0,0,0-.72,1.45,2,2,0,0,0,.25,1L11,23l.19.34c.14.26.28.53.44.81V26l-.11,0-.1,0-3-.73L0,23.17H0v-3L.4,20a1.17,1.17,0,0,1,.47-.1.65.65,0,0,1,.37.1,1.53,1.53,0,0,1,.6.78c.08.18.15.35.21.53s.21.54.34.81a2.42,2.42,0,0,0,2,1.41,2.69,2.69,0,0,0,2.1-.72A6.86,6.86,0,0,0,7.81,21l.11-.19a5.16,5.16,0,0,1,.42-.67,15.44,15.44,0,0,1,1.7-1.8,3,3,0,0,1,.67-.48Z"/><path class="cls-1" d="M25,0V1.44A4.42,4.42,0,0,0,23.14.58L22.83.51Z"/><path class="cls-1" d="M25,3.16V5.69l-.46,0-.39,0a2.21,2.21,0,0,1-.93-.2,7.55,7.55,0,0,1-1.15-.81l-.39-.31a5.88,5.88,0,0,0-1.92-1.06L18.91,3l-.47-.1c-.78-.2-1.19-.45-1.41-.89A1.3,1.3,0,0,1,17,1.88L20.76,1a2.09,2.09,0,0,0,.92.64A6.63,6.63,0,0,0,22.92,2a3,3,0,0,1,1.3.64l.13.09C24.56,2.86,24.78,3,25,3.16Z"/><path class="cls-1" d="M14.94,18.21a3.38,3.38,0,0,1-1.59.8V17.1a1.45,1.45,0,0,1,.28,0,2.06,2.06,0,0,1,1.3.85C15,18.13,15,18.18,14.94,18.21Z"/><path class="cls-1" d="M24.56,13.23c0,.12-.06.2-.49.4-.75.34-1.53.61-2.35.89L20.4,15a7.26,7.26,0,0,0-2,1,2.85,2.85,0,0,0-1.14,2.38,6.7,6.7,0,0,0,1,3.2c.34.56.72,1.1,1.08,1.62l.69,1,.08.13-3.47.84-2.08.51c-.2-.32-.42-.61-.63-.91l-.42-.57-.08-.12V20.47l.14,0a4.8,4.8,0,0,0,2.4-1.17,1.54,1.54,0,0,0,.22-2.05A3.45,3.45,0,0,0,14,15.76a3.19,3.19,0,0,0-.6-.08V10.85a3.24,3.24,0,0,1,.36-.2,19.79,19.79,0,0,1,2.18-.87,13.83,13.83,0,0,1,2.46-.62h.84a3.93,3.93,0,0,1,2,.64,8.94,8.94,0,0,1,2.08,1.83l.46.5a6.26,6.26,0,0,1,.69.8C24.55,13.12,24.56,13.19,24.56,13.23Z"/><path class="cls-1" d="M25,7.11v4.32l-.26-.28-.42-.44a10.58,10.58,0,0,0-2.4-2.11,5.34,5.34,0,0,0-2.71-.86h-1a16.25,16.25,0,0,0-2.75.69,18.7,18.7,0,0,0-2.09.81V2.72l2.21-.51a4.1,4.1,0,0,0,.21.48,3.28,3.28,0,0,0,2.34,1.62l.5.12c.26.05.52.11.77.18a4.75,4.75,0,0,1,1.46.82l.36.29a8.91,8.91,0,0,0,1.38,1,3.92,3.92,0,0,0,1.49.36l.41,0Z"/><path class="cls-1" d="M24.66,14.91a4,4,0,0,0,.36-.18v8.44h0L21.5,24l-.23-.34-.14-.21c-.23-.35-.47-.7-.71-1-.35-.51-.7-1-1-1.54a5.21,5.21,0,0,1-.77-2.51,1.42,1.42,0,0,1,.6-1.23,6.06,6.06,0,0,1,1.67-.83l1.28-.46A24.26,24.26,0,0,0,24.66,14.91Z"/><path class="cls-1" d="M26.9,2.3l-.2,0V0l11,2.56-.09.07a2.76,2.76,0,0,1-.9.51,9.83,9.83,0,0,0-3,1.61,3,3,0,0,1-1.3.65,1.32,1.32,0,0,1-.88-.15,5.69,5.69,0,0,1-1.23-1.1L30.16,4A8.42,8.42,0,0,0,29,2.94,4,4,0,0,0,26.9,2.3Z"/><path class="cls-1" d="M38.37,3.8v3a3.74,3.74,0,0,1-1,.26A6.83,6.83,0,0,0,34.92,8l-.86.56a10.87,10.87,0,0,1-1.27.78,2.15,2.15,0,0,1-1.46.28,4.12,4.12,0,0,1-1.62-.82A16.19,16.19,0,0,1,27.83,7l-.31-.32a3.24,3.24,0,0,0-.82-.61V3.7l.14,0a2.49,2.49,0,0,1,1.3.36,7.34,7.34,0,0,1,1,.88l.14.14a6.29,6.29,0,0,0,1.58,1.39,2.68,2.68,0,0,0,1.32.34l.47,0a4.24,4.24,0,0,0,1.94-.93,8.82,8.82,0,0,1,2.56-1.39A3.91,3.91,0,0,0,38.37,3.8Z"/><path class="cls-1" d="M37.62,8.47a5.86,5.86,0,0,0,.75-.17V26l-.1,0-.1,0-3-.73-8.44-2h0V7.9l.11.11a17.56,17.56,0,0,0,2,1.89A5.66,5.66,0,0,0,31.05,11a3.52,3.52,0,0,0,.63.06,3.88,3.88,0,0,0,1.74-.46,13.25,13.25,0,0,0,1.43-.87c.27-.18.53-.36.81-.52A5.13,5.13,0,0,1,37.62,8.47Z"/></g></g></svg>