<svg xmlns="http://www.w3.org/2000/svg" viewBox="0 0 38.37 32.49"><defs><style>.cls-1{fill:#1d1d1b;}</style></defs><title>mapa4</title><g id="Layer_2" data-name="Layer 2"><g id="Layer_1-2" data-name="Layer 1"><path class="cls-1" d="M11.67,3.41V5.72a7,7,0,0,0-.73-.51L10,4.62a23.1,23.1,0,0,1-2.89-2,3.34,3.34,0,0,1-.59-.67Z"/><path class="cls-1" d="M11.67,7.07V18.18h-.15l-.82.17-.65.12-.48.11c-.35.08-.71.16-1.07.21s-.66.1-1,.17l-.61.12-.67.1c-.31,0-.63.09-.94.15a11.38,11.38,0,0,0-2,.53A15,15,0,0,0,1.07,21l-.91.57-.16.1V0L5.32,1.55h0A3.66,3.66,0,0,0,6.5,3.34a24,24,0,0,0,3,2.12l.9.58A6.38,6.38,0,0,1,11.67,7.07Z"/><path class="cls-1" d="M11.67,19.17v2.76a11.12,11.12,0,0,0-2.24.34l-.16,0a26.6,26.6,0,0,0-3.6,1.08,8.65,8.65,0,0,0-2.14,1.23c-.87.66-1.69,1.38-2.38,2A11.43,11.43,0,0,0,0,27.77V22.86l.69-.43.9-.56a13.86,13.86,0,0,1,2.06-1.08,10.69,10.69,0,0,1,1.84-.48l.89-.14.69-.1.65-.13c.3-.06.6-.12.9-.16s.78-.14,1.17-.22l.46-.1.63-.13Z"/><path class="cls-1" d="M9.65,23.24a10.34,10.34,0,0,1,2-.32v9.57l-.1,0-.1,0-3-.91L.22,29a15.74,15.74,0,0,1,1.59-1.67c.67-.61,1.48-1.31,2.32-2A7.65,7.65,0,0,1,6,24.31a26,26,0,0,1,3.46-1Z"/><path class="cls-1" d="M25,0V6.09a5,5,0,0,0-2.11-.81,4.19,4.19,0,0,0-.5,0,7.48,7.48,0,0,0-1.26.14l-.34.05a1.17,1.17,0,0,1-1.15-.3c-.23-.24-.45-.49-.67-.74a10.27,10.27,0,0,0-1.47-1.48c-.21-.16-.45-.34-.71-.52Z"/><path class="cls-1" d="M25,7.31V13.7a4.57,4.57,0,0,0-2.5-.24c-.42.07-.82.17-1.23.26a14.06,14.06,0,0,1-1.52.3,5.83,5.83,0,0,1-2.07-.14,7.44,7.44,0,0,1-2.45-1.07A3,3,0,0,1,13.81,11a8.73,8.73,0,0,1-.17-1.29c0-.23,0-.45-.05-.68a4.16,4.16,0,0,0-.23-1V3.41l2.1-.62a7,7,0,0,1,1.45.91,9.45,9.45,0,0,1,1.33,1.35c.23.27.46.53.7.78a2.14,2.14,0,0,0,2,.59l.36-.06a4.84,4.84,0,0,1,1.45-.1A4.16,4.16,0,0,1,24.65,7Z"/><path class="cls-1" d="M20.48,29.68c0,.21,0,.43,0,.64l-4,1.2-3,.91-.1,0-.1,0V23.14a5,5,0,0,1,.62.19,11.63,11.63,0,0,1,3.28,2.14l.74.65c.43.38.86.76,1.31,1.12A3.3,3.3,0,0,1,20.48,29.68Z"/><path class="cls-1" d="M24.87,29l-3.38,1c0-.15,0-.3,0-.44a4.25,4.25,0,0,0-1.54-3.12c-.44-.35-.85-.72-1.27-1.09l-.75-.66a12.34,12.34,0,0,0-3.58-2.31,5.5,5.5,0,0,0-1-.29V19.26a7.72,7.72,0,0,1,.88.24c.6.2,1.19.45,1.76.7l.34.14a10.67,10.67,0,0,1,2.88,1.73l.88.79c.34.31.67.62,1,.92a19.4,19.4,0,0,1,2.41,2.36,5.8,5.8,0,0,1,.86,1.38A8,8,0,0,1,24.87,29Z"/><path class="cls-1" d="M25,14.79V26.57a6,6,0,0,0-.74-1.07A21.1,21.1,0,0,0,21.77,23c-.34-.29-.67-.59-1-.89s-.6-.55-.9-.81a11.68,11.68,0,0,0-3.14-1.89l-.34-.14c-.59-.26-1.2-.52-1.83-.73a7,7,0,0,0-1.2-.3V12.37a4.42,4.42,0,0,0,1.36,1.28,8.53,8.53,0,0,0,2.77,1.2A6.78,6.78,0,0,0,19.9,15a16.37,16.37,0,0,0,1.61-.31c.39-.09.78-.18,1.17-.25A3.58,3.58,0,0,1,25,14.79Z"/><path class="cls-1" d="M38.37,3.41V7.19l-.33,0a4.39,4.39,0,0,0-2.12.65c-.69.45-1.48,1-2.28,1.41a4.26,4.26,0,0,1-3.51.42A8.23,8.23,0,0,1,27.62,8.2c-.3-.25-.61-.5-.91-.77V0Z"/><path class="cls-1" d="M38.37,8.18v8.69c-.63,0-1.21-.06-1.79-.06H34.66c-.65,0-1.31,0-2,.06s-1.33,0-2,0h-.85l-.11,0a4.91,4.91,0,0,1-2.22-1.31l-.26-.25-.57-.51v-6L27,9a8.8,8.8,0,0,0,2.81,1.65,5.25,5.25,0,0,0,1.6.26,5.52,5.52,0,0,0,2.71-.75c.82-.47,1.63-1,2.33-1.45a3.36,3.36,0,0,1,1.66-.49Z"/><path class="cls-1" d="M36.58,17.8c.58,0,1.16,0,1.79.06V32.49l-.1,0-.1,0-3-.91L26.72,29h0V16.12l.16.15a5.82,5.82,0,0,0,2.68,1.55,5.09,5.09,0,0,0,1.15.05c.67,0,1.37,0,2.07,0,.95-.07,1.92-.06,2.85-.05Z"/></g></g></svg>